<?xml version="1.0" encoding="utf-8"?>
<!-- Generator: Adobe Illustrator 25.4.1, SVG Export Plug-In . SVG Version: 6.00 Build 0)  -->
<svg version="1.1" id="Layer_1" xmlns="http://www.w3.org/2000/svg" xmlns:xlink="http://www.w3.org/1999/xlink" x="0px" y="0px"
	 viewBox="0 0 342.9 99.8" style="enable-background:new 0 0 342.9 99.8;" xml:space="preserve">
<style type="text/css">
	.st0{fill:#FFFFFF;}
	.st1{fill:#7970B3;}
</style>
<g>
	<g>
		<path class="st0" d="M172.6,18.3v42.6h-33.5v8.7h-17.3V18.3H172.6z M155.3,37h-16.1v5.4h16.1V37z"/>
		<path class="st0" d="M229.5,18.7v51h-51.3v-51H229.5z M195.9,51.5h16.1V35.5h-16.1V51.5z"/>
		<path class="st0" d="M269.4,69.6V36.1h-17.4v33.5h-16.8V18.6h51.1v51.1H269.4z"/>
		<path class="st0" d="M325.8,52.8V44h17.1v25.7h-51.1v-51h42.7v16.8h-25.3v17.3H325.8z"/>
	</g>
	<g id="g754_00000080182358304990053770000004797071061748824203_">
		<g id="g760_00000173149098606021813960000015900432839755343514_" transform="translate(343.3604,470.6396)">
			<g id="path762_00000079445046729039648310000009824436118019819941_">
				<path class="st1" d="M-276.9-403.8c-8.6,0-17.1-3.3-23.6-9.8c-13-13-13-34.2,0-47.3l0,0c13-13,34.2-13,47.3,0
					c6.3,6.3,9.8,14.7,9.8,23.6c0,8.9-3.5,17.3-9.8,23.6C-259.8-407.1-268.4-403.8-276.9-403.8z M-293.8-454.1L-293.8-454.1
					c-9.3,9.3-9.3,24.5,0,33.8c4.7,4.7,10.8,7,16.9,7c6.1,0,12.2-2.3,16.9-7c4.5-4.5,7-10.5,7-16.9s-2.5-12.4-7-16.9
					C-269.4-463.4-284.5-463.4-293.8-454.1z"/>
			</g>
		</g>
		<g id="g764_00000019654087260075737210000003305170802957411007_" transform="translate(241.5898,241.5898)">
			<g id="path766_00000138548567739535279910000009141400056342728877_">
				<path class="st1" d="M-227.8-150.8c-1.2,0-2.4-0.5-3.4-1.4c-1.9-1.9-1.9-4.9,0-6.8l15.8-15.8c1.9-1.9,4.9-1.9,6.8,0
					c1.9,1.9,1.9,4.9,0,6.8l-15.8,15.8C-225.4-151.2-226.6-150.8-227.8-150.8z"/>
			</g>
		</g>
		<g id="g768_00000072252185560822525920000007348220121853575570_" transform="translate(213.3057,326.4424)">
			<g id="path770_00000125575461337318908040000015048851057592479121_">
				<path class="st1" d="M-208.5-262.6c-1.2,0-2.4-0.5-3.4-1.4c-1.9-1.9-1.9-4.9,0-6.8l13.5-13.5c1.9-1.9,4.9-1.9,6.8,0
					c1.9,1.9,1.9,4.9,0,6.8l-13.5,13.5C-206.1-263.1-207.3-262.6-208.5-262.6z"/>
			</g>
		</g>
		<g id="g772_00000152946406403395085560000010671046441357421246_" transform="translate(326.4424,213.3057)">
			<g id="path774_00000013160691680733502990000010332151021934597252_">
				<path class="st1" d="M-285.7-113.5c-1.2,0-2.4-0.5-3.4-1.4c-1.9-1.9-1.9-4.9,0-6.8l13.5-13.5c1.9-1.9,4.9-1.9,6.8,0
					c1.9,1.9,1.9,4.9,0,6.8l-13.5,13.5C-283.2-113.9-284.4-113.5-285.7-113.5z"/>
			</g>
		</g>
	</g>
</g>
</svg>
